<svg width="60" height="60" viewBox="0 0 60 60" fill="none" xmlns="http://www.w3.org/2000/svg">
<g clip-path="url(#clip0_72_143)">
<path d="M29.275 44.975C21.325 44.6 15 38.05 15 30C15 21.725 21.725 15 30 15C38.05 15 44.6 21.325 44.975 29.275L39.725 27.7C38.7 23.275 34.725 20 30 20C24.475 20 20 24.475 20 30C20 34.725 23.275 38.7 27.7 39.725L29.275 44.975ZM55 30C55 30.75 54.975 31.5 54.9 32.25L49.975 30.775C50 30.525 50 30.25 50 30C50 18.95 41.05 10 30 10C18.95 10 10 18.95 10 30C10 41.05 18.95 50 30 50C30.25 50 30.525 50 30.775 49.975L32.25 54.9C31.5 54.975 30.75 55 30 55C16.2 55 5 43.8 5 30C5 16.2 16.2 5 30 5C43.8 5 55 16.2 55 30ZM45.575 40.65L55 37.5L30 30L37.5 55L40.65 45.575L51.325 56.25L56.275 51.3L45.575 40.65Z" fill="#003536"/>
</g>
<defs>
<clipPath id="clip0_72_143">
<rect width="60" height="60" fill="white"/>
</clipPath>
</defs>
</svg>
