<svg width="40" height="40" viewBox="0 0 40 40" fill="none" xmlns="http://www.w3.org/2000/svg">
<rect width="40" height="40" rx="20" fill="#00C2A2" fill-opacity="0.15"/>
<path d="M18.7188 26.5625C17.1674 26.5625 15.6509 26.1025 14.361 25.2406C13.0711 24.3787 12.0657 23.1537 11.4721 21.7204C10.8784 20.2872 10.7231 18.7101 11.0257 17.1885C11.3284 15.667 12.0754 14.2694 13.1724 13.1724C14.2693 12.0754 15.667 11.3284 17.1885 11.0257C18.71 10.7231 20.2872 10.8784 21.7204 11.4721C23.1537 12.0657 24.3787 13.0711 25.2406 14.361C26.1025 15.6509 26.5625 17.1674 26.5625 18.7188C26.5625 19.7488 26.3596 20.7688 25.9654 21.7204C25.5712 22.6721 24.9935 23.5368 24.2651 24.2651C23.5368 24.9935 22.6721 25.5712 21.7204 25.9654C20.7688 26.3596 19.7488 26.5625 18.7188 26.5625ZM18.7188 12.4479C17.4826 12.4479 16.2742 12.8145 15.2464 13.5012C14.2186 14.188 13.4176 15.1641 12.9445 16.3061C12.4715 17.4482 12.3477 18.7049 12.5888 19.9172C12.83 21.1296 13.4253 22.2433 14.2993 23.1173C15.1734 23.9914 16.2871 24.5867 17.4994 24.8278C18.7118 25.069 19.9685 24.9452 21.1105 24.4722C22.2526 23.9991 23.2287 23.198 23.9154 22.1702C24.6022 21.1424 24.9688 19.9341 24.9688 18.6979C24.9688 17.0403 24.3103 15.4506 23.1382 14.2785C21.9661 13.1064 20.3764 12.4479 18.7188 12.4479Z" fill="#003536"/>
<path d="M28.293 29.1146C28.1904 29.1151 28.0887 29.0951 27.9939 29.0557C27.899 29.0164 27.8131 28.9585 27.7409 28.8855L23.4388 24.5834C23.3008 24.4353 23.2257 24.2394 23.2293 24.037C23.2329 23.8346 23.3149 23.6415 23.458 23.4984C23.6011 23.3552 23.7942 23.2732 23.9966 23.2697C24.199 23.2661 24.3949 23.3412 24.543 23.4792L28.8451 27.7813C28.9914 27.9278 29.0736 28.1263 29.0736 28.3334C29.0736 28.5404 28.9914 28.739 28.8451 28.8855C28.773 28.9585 28.687 29.0164 28.5922 29.0557C28.4974 29.0951 28.3957 29.1151 28.293 29.1146Z" fill="#003536"/>
</svg>
