<svg width="41" height="40" viewBox="0 0 41 40" fill="none" xmlns="http://www.w3.org/2000/svg">
<path d="M20.5639 7.50004C18.5168 7.49946 16.5009 8.00165 14.6934 8.96247C12.8858 9.92329 11.3418 11.3133 10.1972 13.0105C9.05252 14.7076 8.3422 16.6599 8.12862 18.6958C7.91503 20.7317 8.20473 22.789 8.97225 24.6867C9.01339 24.7881 9.03416 24.8967 9.03335 25.0062C9.03254 25.1156 9.01018 25.2239 8.96755 25.3247C8.92491 25.4255 8.86283 25.517 8.78485 25.5938C8.70687 25.6707 8.61453 25.7314 8.51308 25.7725C8.41163 25.8137 8.30308 25.8344 8.19361 25.8336C8.08413 25.8328 7.9759 25.8105 7.87507 25.7678C7.77424 25.7252 7.68279 25.6631 7.60596 25.5851C7.52912 25.5072 7.46839 25.4148 7.42725 25.3134C6.20252 22.2844 6.06242 18.9251 7.03068 15.8047C7.99894 12.6842 10.016 9.99431 12.7403 8.19064C15.4646 6.38697 18.7285 5.58039 21.9794 5.90751C25.2302 6.23464 28.268 7.67536 30.5783 9.98565C32.8886 12.2959 34.3293 15.3338 34.6564 18.5846C34.9836 21.8354 34.177 25.0994 32.3733 27.8237C30.5696 30.5479 27.8798 32.565 24.7593 33.5333C21.6388 34.5015 18.2796 34.3614 15.2506 33.1367C15.0472 33.0528 14.8852 32.8919 14.8 32.689C14.7148 32.4861 14.7133 32.2578 14.7958 32.0538C14.8783 31.8498 15.0382 31.6868 15.2404 31.6002C15.4427 31.5136 15.671 31.5106 15.8756 31.5917C17.5847 32.2814 19.4252 32.5847 21.2653 32.4798C23.1053 32.3748 24.8994 31.8643 26.519 30.9847C28.1386 30.1051 29.5437 28.8783 30.6336 27.392C31.7235 25.9058 32.4713 24.1969 32.8233 22.3878C33.1754 20.5787 33.1231 18.7141 32.67 16.9276C32.217 15.1411 31.3746 13.4769 30.203 12.0541C29.0314 10.6313 27.5597 9.48527 25.8933 8.69796C24.2269 7.91064 22.407 7.50157 20.5639 7.50004Z" fill="#003536"/>
<path d="M11.3973 20C11.3973 22.2317 12.1939 24.2767 13.5189 25.8667L12.7189 26.6667H10.1806C9.51778 26.6672 8.88232 26.931 8.41393 27.4L5.68393 30.1283C5.50933 30.3031 5.39046 30.5258 5.34232 30.7681C5.29418 31.0104 5.31893 31.2616 5.41345 31.4899C5.50797 31.7181 5.66801 31.9133 5.87337 32.0506C6.07873 32.188 6.32019 32.2614 6.56726 32.2617H8.30059V33.995C8.30081 34.2421 8.37424 34.4835 8.51161 34.6889C8.64897 34.8942 8.84412 35.0543 9.07239 35.1488C9.30066 35.2433 9.55182 35.2681 9.79415 35.2199C10.0365 35.1718 10.2591 35.0529 10.4339 34.8783L13.1623 32.1483C13.6314 31.6806 13.8958 31.0458 13.8973 30.3833V27.8467L14.6973 27.0467C16.2992 28.381 18.3082 29.1293 20.3927 29.1683C22.4772 29.2072 24.5127 28.5344 26.1634 27.2609C27.8141 25.9873 28.9813 24.1891 29.4725 22.163C29.9637 20.1368 29.7496 18.0037 28.8654 16.1156C27.9812 14.2275 26.4798 12.6972 24.6088 11.7773C22.7379 10.8573 20.6093 10.6026 18.5741 11.0551C16.539 11.5077 14.7189 12.6405 13.4141 14.2666C12.1094 15.8928 11.398 17.9151 11.3973 20ZM20.5639 12.5C21.7619 12.5004 22.9423 12.7877 24.0064 13.338C25.0705 13.8882 25.9873 14.6854 26.6801 15.6627C27.3729 16.64 27.8215 17.7691 27.9883 18.9553C28.1552 20.1416 28.0355 21.3506 27.6392 22.4811C27.2429 23.6116 26.5815 24.6307 25.7105 25.4532C24.8395 26.2756 23.7842 26.8774 22.6328 27.2083C21.4814 27.5391 20.2676 27.5894 19.0928 27.3548C17.9181 27.1202 16.8166 26.6077 15.8806 25.86L18.8689 22.8717C19.5678 23.2837 20.393 23.4268 21.1898 23.274C21.9866 23.1212 22.7003 22.683 23.1972 22.0416C23.694 21.4002 23.9399 20.5996 23.8886 19.7899C23.8374 18.9802 23.4927 18.217 22.919 17.6433C22.3453 17.0696 21.5821 16.7248 20.7724 16.6736C19.9627 16.6224 19.1621 16.8683 18.5207 17.3651C17.8793 17.8619 17.4411 18.5757 17.2883 19.3725C17.1355 20.1693 17.2785 20.9944 17.6906 21.6933L14.7039 24.6817C13.8223 23.5782 13.2701 22.2482 13.111 20.8448C12.9519 19.4414 13.1923 18.0215 13.8046 16.7487C14.4169 15.4759 15.3762 14.4019 16.572 13.6502C17.7678 12.8986 19.1515 12.4999 20.5639 12.5ZM9.59226 28.5767C9.66979 28.4993 9.76181 28.438 9.86304 28.3963C9.96428 28.3545 10.0728 28.3331 10.1823 28.3333H12.2306V30.3817C12.2301 30.6025 12.142 30.8141 11.9856 30.97L9.96893 32.9867V31.4283C9.96893 31.2073 9.88113 30.9954 9.72485 30.8391C9.56857 30.6828 9.35661 30.595 9.13559 30.595H7.57559L9.59226 28.5767Z" fill="#003536"/>
</svg>
