<svg width="41" height="40" viewBox="0 0 41 40" fill="none" xmlns="http://www.w3.org/2000/svg">
<path d="M20.564 4.99997L20.8923 4.2333C20.7885 4.18883 20.6768 4.16589 20.564 4.16589C20.4511 4.16589 20.3394 4.18883 20.2356 4.2333L20.564 4.99997ZM20.564 35L20.1506 35.7233C20.2765 35.7952 20.419 35.833 20.564 35.833C20.7089 35.833 20.8514 35.7952 20.9773 35.7233L20.564 35ZM20.234 4.2333L9.57896 8.79997L10.2356 10.3333L20.8923 5.76664L20.234 4.2333ZM8.06396 11.1V22.53H9.73063V11.1H8.06396ZM13.5223 31.9366L20.1506 35.7233L20.9773 34.2766L14.349 30.4883L13.5223 31.9366ZM20.9773 35.7233L27.6056 31.9366L26.779 30.4883L20.1506 34.2766L20.9773 35.7233ZM33.064 22.53V11.1H31.3973V22.5333L33.064 22.53ZM31.5473 8.80164L20.8923 4.2333L20.2356 5.76664L30.8923 10.3333L31.5473 8.80164ZM33.064 11.1C33.0636 10.6107 32.9197 10.1307 32.6501 9.72247C32.3805 9.31423 31.9971 8.99406 31.5473 8.80164L30.8923 10.3333C31.0423 10.3976 31.1701 10.5045 31.2599 10.6408C31.3497 10.7771 31.3974 10.9368 31.3973 11.1H33.064ZM27.6056 31.9366C29.2639 30.989 30.6422 29.6198 31.6007 27.9679C32.5593 26.3159 33.0641 24.4399 33.064 22.53H31.3973C31.3972 24.1458 30.97 25.733 30.159 27.1306C29.348 28.5282 28.1819 29.6865 26.779 30.4883L27.6056 31.9366ZM8.06396 22.53C8.06383 24.4399 8.56862 26.3159 9.52719 27.9679C10.4858 29.6198 11.864 30.989 13.5223 31.9366L14.349 30.4883C12.946 29.6865 11.78 28.5282 10.9689 27.1306C10.1579 25.733 9.73069 24.1458 9.73063 22.53H8.06396ZM9.58063 8.80164C9.13084 8.99406 8.74739 9.31423 8.4778 9.72247C8.20821 10.1307 8.06432 10.6107 8.06396 11.1H9.73063C9.73063 10.7666 9.93063 10.4666 10.2356 10.3333L9.58063 8.80164Z" fill="#003536"/>
<path d="M25.564 16.6666L18.8973 23.3333L15.564 20" stroke="#003536" stroke-width="1.25" stroke-linecap="round" stroke-linejoin="round"/>
</svg>
