<svg width="40" height="40" viewBox="0 0 40 40" fill="none" xmlns="http://www.w3.org/2000/svg">
<path d="M12.85 20C12.85 20.2667 12.892 20.5167 12.976 20.75C13.0587 20.9833 13.2 21.2 13.4 21.4L18.6 26.6C18.9667 26.9667 19.4333 27.15 20 27.15C20.5667 27.15 21.0333 26.9667 21.4 26.6C21.7667 26.2333 21.95 25.7667 21.95 25.2C21.95 24.6333 21.7667 24.1667 21.4 23.8L19.6 22H26C26.5667 22 27.042 21.8087 27.426 21.426C27.8087 21.042 28 20.5667 28 20C28 19.4333 27.8087 18.9587 27.426 18.576C27.042 18.192 26.5667 18 26 18H19.6L21.4 16.2C21.7667 15.8333 21.95 15.3667 21.95 14.8C21.95 14.2333 21.7667 13.7667 21.4 13.4C21.0333 13.0333 20.5667 12.85 20 12.85C19.4333 12.85 18.9667 13.0333 18.6 13.4L13.4 18.6C13.2 18.8 13.0587 19.0167 12.976 19.25C12.892 19.4833 12.85 19.7333 12.85 20ZM0 20C0 17.2333 0.525333 14.6333 1.576 12.2C2.62533 9.76667 4.05 7.65 5.85 5.85C7.65 4.05 9.76667 2.62533 12.2 1.576C14.6333 0.525334 17.2333 0 20 0C22.7667 0 25.3667 0.525334 27.8 1.576C30.2333 2.62533 32.35 4.05 34.15 5.85C35.95 7.65 37.3753 9.76667 38.426 12.2C39.4753 14.6333 40 17.2333 40 20C40 22.7667 39.4753 25.3667 38.426 27.8C37.3753 30.2333 35.95 32.35 34.15 34.15C32.35 35.95 30.2333 37.3747 27.8 38.424C25.3667 39.4747 22.7667 40 20 40C17.2333 40 14.6333 39.4747 12.2 38.424C9.76667 37.3747 7.65 35.95 5.85 34.15C4.05 32.35 2.62533 30.2333 1.576 27.8C0.525333 25.3667 0 22.7667 0 20Z" fill="white"/>
</svg>
