<svg width="16" height="16" viewBox="0 0 16 16" fill="none" xmlns="http://www.w3.org/2000/svg">
<path d="M5.50043 6.74999C5.50043 6.58423 5.56628 6.42526 5.68349 6.30805C5.8007 6.19084 5.95967 6.12499 6.12543 6.12499H9.87543C10.0412 6.12499 10.2002 6.19084 10.3174 6.30805C10.4346 6.42526 10.5004 6.58423 10.5004 6.74999C10.5004 6.91575 10.4346 7.07472 10.3174 7.19193C10.2002 7.30914 10.0412 7.37499 9.87543 7.37499H6.12543C5.95967 7.37499 5.8007 7.30914 5.68349 7.19193C5.56628 7.07472 5.50043 6.91575 5.50043 6.74999ZM6.12543 8.62499C5.95967 8.62499 5.8007 8.69084 5.68349 8.80805C5.56628 8.92526 5.50043 9.08423 5.50043 9.24999C5.50043 9.41575 5.56628 9.57472 5.68349 9.69193C5.8007 9.80914 5.95967 9.87499 6.12543 9.87499H8.62543C8.79119 9.87499 8.95016 9.80914 9.06737 9.69193C9.18458 9.57472 9.25043 9.41575 9.25043 9.24999C9.25043 9.08423 9.18458 8.92526 9.06737 8.80805C8.95016 8.69084 8.79119 8.62499 8.62543 8.62499H6.12543ZM0.500432 7.99999C0.500751 6.3488 1.04596 4.74386 2.05149 3.43415C3.05702 2.12444 4.46666 1.18316 6.06173 0.756339C7.65681 0.329517 9.34815 0.441008 10.8734 1.07352C12.3986 1.70602 13.6725 2.82419 14.4974 4.25457C15.3223 5.68494 15.6522 7.34755 15.4357 8.9845C15.2193 10.6214 14.4687 12.1412 13.3004 13.3081C12.1321 14.4749 10.6114 15.2236 8.97419 15.438C7.33697 15.6523 5.67477 15.3204 4.24543 14.4937L1.32293 15.4687C1.21496 15.5048 1.09919 15.5107 0.988125 15.4857C0.877057 15.4608 0.774906 15.406 0.692697 15.3273C0.610488 15.2485 0.551343 15.1489 0.521645 15.039C0.491948 14.9291 0.492824 14.8132 0.524182 14.7037L1.41418 11.59C0.814207 10.4886 0.500041 9.25423 0.500432 7.99999ZM8.00043 1.74999C6.89691 1.74992 5.81304 2.04203 4.859 2.59662C3.90496 3.15121 3.11477 3.94852 2.56875 4.90749C2.02272 5.86646 1.74034 6.9529 1.75029 8.05638C1.76025 9.15986 2.06219 10.241 2.62543 11.19C2.66877 11.2633 2.69666 11.3447 2.70741 11.4292C2.71816 11.5136 2.71153 11.5994 2.68793 11.6812L2.05168 13.9062L4.12418 13.2162C4.2122 13.1869 4.30565 13.1775 4.39776 13.1887C4.48987 13.1999 4.57831 13.2316 4.65668 13.2812C5.47577 13.7996 6.4042 14.1203 7.36859 14.2181C8.33298 14.3159 9.3069 14.188 10.2134 13.8446C11.1198 13.5011 11.934 12.9516 12.5914 12.2393C13.2489 11.527 13.7317 10.6716 14.0017 9.74062C14.2717 8.80963 14.3214 7.82862 14.1469 6.87511C13.9724 5.92161 13.5786 5.02175 12.9965 4.24667C12.4144 3.47159 11.6599 2.84253 10.7929 2.40922C9.92576 1.9759 8.96977 1.75021 8.00043 1.74999Z" fill="white"/>
</svg>
