<svg width="21" height="18" viewBox="0 0 21 18" fill="none" xmlns="http://www.w3.org/2000/svg">
<path d="M3.17009 8.77661C2.74946 8.35877 2.41619 7.86139 2.18971 7.31346C1.96324 6.76553 1.84807 6.178 1.85094 5.58512C1.85094 4.386 2.32729 3.236 3.17519 2.3881C4.02309 1.54019 5.17309 1.06385 6.37221 1.06385C8.05306 1.06385 9.52114 1.97874 10.2977 3.34044H11.4892C11.884 2.64795 12.4553 2.07245 13.1449 1.67255C13.8344 1.27264 14.6176 1.06261 15.4148 1.06385C16.6139 1.06385 17.7639 1.54019 18.6118 2.3881C19.4597 3.236 19.936 4.386 19.936 5.58512C19.936 6.8298 19.4041 7.97873 18.6169 8.77661L10.8935 16.4894L3.17009 8.77661ZM19.3616 9.53192C20.3722 8.51065 20.9999 7.12767 20.9999 5.58512C20.9999 4.10386 20.4114 2.68327 19.364 1.63586C18.3166 0.588448 16.896 1.92042e-05 15.4148 1.92042e-05C13.5531 1.92042e-05 11.9041 0.904274 10.8935 2.30853C10.3776 1.59204 9.69838 1.00887 8.91208 0.607389C8.12577 0.205911 7.25508 -0.00230245 6.37221 1.92042e-05C4.89095 1.92042e-05 3.47036 0.588448 2.42295 1.63586C1.37554 2.68327 0.787109 4.10386 0.787109 5.58512C0.787109 7.12767 1.41477 8.51065 2.42541 9.53192L10.8935 18L19.3616 9.53192Z" fill="#003536"/>
</svg>
