<svg width="30" height="32" viewBox="0 0 30 32" fill="none" xmlns="http://www.w3.org/2000/svg">
<path d="M12.4603 0.788C11.6283 0.188 10.6603 1.71196e-08 10.0003 1.71196e-08H7.1083C6.2023 -7.49442e-05 5.31329 0.246025 4.5363 0.712L0.970304 2.852C0.674482 3.02973 0.42968 3.28098 0.259706 3.58133C0.0897331 3.88167 0.000368118 4.22089 0.000303268 4.566V7C0.000303268 7.79565 0.316376 8.55871 0.878984 9.12132C1.44159 9.68393 2.20465 10 3.0003 10H4.0003V26.076C3.1583 26.206 2.3143 26.52 1.6103 27.106C0.590303 27.954 0.000303268 29.26 0.000303268 31C0.000303268 31.2652 0.105659 31.5196 0.293196 31.7071C0.480732 31.8946 0.735086 32 1.0003 32H24.0003C25.2591 32.0001 26.486 31.6044 27.5075 30.8687C28.5289 30.1331 29.2931 29.0948 29.6919 27.9008C30.0907 26.7069 30.1039 25.4178 29.7296 24.2159C29.3553 23.0141 28.6125 21.9604 27.6063 21.204C27.394 21.0509 27.1301 20.9871 26.8713 21.0263C26.6125 21.0655 26.3794 21.2047 26.2221 21.4139C26.0647 21.6231 25.9957 21.8856 26.0298 22.1451C26.0638 22.4047 26.1983 22.6405 26.4043 22.802C27.0754 23.3062 27.5708 24.0087 27.8205 24.81C28.0702 25.6114 28.0615 26.471 27.7956 27.2671C27.5297 28.0633 27.0201 28.7556 26.339 29.246C25.6578 29.7365 24.8397 30.0003 24.0003 30C23.4243 30 23.0603 29.86 22.8203 29.7C22.5819 29.5375 22.3919 29.3136 22.2703 29.052C22.1072 28.7242 22.0152 28.3658 22.0003 28V27.91L21.9923 27.69C21.9843 27.498 21.9643 27.2347 21.9323 26.9C21.8421 26.0095 21.6883 25.1266 21.4723 24.258C20.9463 22.158 19.8803 19.466 17.7083 17.292C14.0203 13.606 14.0003 8.662 14.0003 7V4C14.0003 2.474 13.3403 1.424 12.4603 0.788ZM12.1523 9.8C12.4623 12.312 13.4103 15.824 16.2923 18.708C18.1203 20.534 19.0543 22.842 19.5303 24.742C19.7786 25.7381 19.9339 26.7552 19.9943 27.78L20.0003 27.954V28.066L20.0083 28.2C20.0501 28.8279 20.2203 29.4405 20.5083 30H8.1623C8.3623 29.36 8.7683 28.702 9.4663 28.336C9.94179 28.0983 10.469 27.9828 11.0003 28H13.0003C13.2655 28 13.5199 27.8946 13.7074 27.7071C13.8949 27.5196 14.0003 27.2652 14.0003 27C14.0003 26.7348 13.8949 26.4804 13.7074 26.2929C13.5199 26.1054 13.2655 26 13.0003 26H11.0003C10.6483 26 10.315 26.0267 10.0003 26.08V21C10.0003 20.7348 9.89495 20.4804 9.70741 20.2929C9.51987 20.1054 9.26552 20 9.0003 20C8.73509 20 8.48073 20.1054 8.2932 20.2929C8.10566 20.4804 8.0003 20.7348 8.0003 21V26.896C6.8403 27.732 6.3063 28.976 6.1043 30H2.1043C2.2543 29.344 2.5543 28.922 2.8903 28.644C3.4043 28.214 4.1503 28 5.0003 28C5.26552 28 5.51987 27.8946 5.70741 27.7071C5.89495 27.5196 6.0003 27.2652 6.0003 27V9C6.0003 8.73478 5.89495 8.48043 5.70741 8.29289C5.51987 8.10536 5.26552 8 5.0003 8H3.0003C2.73509 8 2.48073 7.89464 2.2932 7.70711C2.10566 7.51957 2.0003 7.26522 2.0003 7V4.566L5.5643 2.426C6.03085 2.1467 6.56454 1.99945 7.1083 2H10.0003C10.3403 2 10.8723 2.11 11.2903 2.412C11.6603 2.676 12.0003 3.126 12.0003 4V7C12.0003 7.174 11.9403 7.456 11.7883 7.666C11.6743 7.826 11.4743 8 11.0003 8C10.5263 8 10.3263 7.824 10.2123 7.666C10.0771 7.46995 10.0033 7.23812 10.0003 7C10.0003 6.73478 9.89495 6.48043 9.70741 6.29289C9.51987 6.10536 9.26552 6 9.0003 6C8.73509 6 8.48073 6.10536 8.2932 6.29289C8.10566 6.48043 8.0003 6.73478 8.0003 7C8.0003 7.494 8.1403 8.212 8.5883 8.834C9.0743 9.508 9.8743 10 11.0003 10C11.3933 10.0046 11.7838 9.93685 12.1523 9.8Z" fill="#969696"/>
</svg>
