<svg width="21" height="21" viewBox="0 0 21 21" fill="none" xmlns="http://www.w3.org/2000/svg">
<path d="M6.22083 8.21459H14.6167M6.22083 12.6188H12.2083M10.4188 20.0521C12.5119 20.0516 14.5479 19.3696 16.219 18.1092C17.89 16.8488 19.1052 15.0785 19.6807 13.066C20.2562 11.0536 20.1608 8.90848 19.4088 6.95511C18.6569 5.00174 17.2893 3.34634 15.5129 2.23929C13.7365 1.13223 11.648 0.633716 9.56308 0.819145C7.4782 1.00457 5.51039 1.86385 3.95727 3.26704C2.40415 4.67022 1.35018 6.54098 0.95476 8.5964C0.559341 10.6518 0.843978 12.7801 1.76563 14.6594C1.87813 14.8886 1.91563 15.1469 1.85833 15.3948L1.00833 19.0781C0.984371 19.1815 0.98712 19.2893 1.01632 19.3913C1.04552 19.4933 1.10022 19.5862 1.17525 19.6612C1.25028 19.7363 1.34317 19.7909 1.44519 19.8201C1.5472 19.8493 1.65497 19.8521 1.75833 19.8281L5.44063 18.9771C5.68924 18.9227 5.94903 18.9558 6.17604 19.0708C7.49624 19.7192 8.94795 20.0549 10.4188 20.0521Z" stroke="#003536" stroke-width="1.5625" stroke-linecap="round" stroke-linejoin="round"/>
</svg>
