<svg width="20" height="20" viewBox="0 0 20 20" fill="none" xmlns="http://www.w3.org/2000/svg">
<path d="M6.64171 8.23818H13.3584M6.64171 11.7615H11.4317M10 17.7082C11.6745 17.7078 13.3034 17.1622 14.6402 16.1539C15.977 15.1455 16.9492 13.7293 17.4096 12.1193C17.87 10.5094 17.7937 8.79329 17.1921 7.23059C16.5905 5.66789 15.4965 4.34358 14.0754 3.45793C12.6543 2.57229 10.9834 2.17348 9.3155 2.32182C7.6476 2.47016 6.07335 3.15759 4.83086 4.28013C3.58836 5.40268 2.74518 6.89929 2.42885 8.54363C2.11251 10.188 2.34022 11.8906 3.07754 13.394C3.16754 13.5773 3.19754 13.784 3.15171 13.9823L2.47171 16.929C2.45254 17.0117 2.45473 17.0979 2.4781 17.1795C2.50146 17.2611 2.54521 17.3355 2.60524 17.3955C2.66526 17.4555 2.73958 17.4993 2.82119 17.5226C2.9028 17.546 2.98901 17.5482 3.07171 17.529L6.01754 16.8482C6.21643 16.8046 6.42427 16.8311 6.60587 16.9232C7.66203 17.4418 8.8234 17.7104 10 17.7082Z" stroke="#969696" stroke-width="1.25" stroke-linecap="round" stroke-linejoin="round"/>
</svg>
