<svg width="40" height="40" viewBox="0 0 40 40" fill="none" xmlns="http://www.w3.org/2000/svg">
<rect width="40" height="40" rx="20" fill="#00C2A2" fill-opacity="0.15"/>
<path d="M28.2031 15.5078C27.7009 15.5078 27.21 15.6567 26.7925 15.9357C26.375 16.2147 26.0495 16.6113 25.8573 17.0752C25.6652 17.5392 25.6149 18.0497 25.7129 18.5422C25.8108 19.0348 26.0526 19.4872 26.4077 19.8423C26.7628 20.1974 27.2153 20.4392 27.7078 20.5372C28.2003 20.6351 28.7108 20.5848 29.1748 20.3927C29.6387 20.2005 30.0353 19.875 30.3143 19.4575C30.5933 19.04 30.7422 18.5491 30.7422 18.0469C30.7422 17.3735 30.4747 16.7277 29.9985 16.2515C29.5223 15.7753 28.8765 15.5078 28.2031 15.5078ZM28.2031 19.4141C27.9327 19.4141 27.6684 19.3339 27.4436 19.1837C27.2187 19.0334 27.0435 18.8199 26.94 18.5701C26.8365 18.3203 26.8095 18.0454 26.8622 17.7802C26.915 17.5149 27.0452 17.2713 27.2364 17.0801C27.4276 16.8889 27.6712 16.7587 27.9364 16.706C28.2016 16.6532 28.4765 16.6803 28.7263 16.7838C28.9761 16.8872 29.1897 17.0625 29.3399 17.2873C29.4901 17.5121 29.5703 17.7765 29.5703 18.0469C29.5703 18.4095 29.4263 18.7572 29.1699 19.0136C28.9135 19.27 28.5657 19.4141 28.2031 19.4141ZM14.3359 18.0469C14.3359 17.5447 14.187 17.0538 13.908 16.6362C13.629 16.2187 13.2325 15.8933 12.7685 15.7011C12.3046 15.5089 11.7941 15.4586 11.3015 15.5566C10.809 15.6546 10.3566 15.8964 10.0015 16.2515C9.64639 16.6066 9.40457 17.059 9.3066 17.5515C9.20863 18.0441 9.25891 18.5546 9.45109 19.0185C9.64326 19.4825 9.9687 19.879 10.3862 20.158C10.8038 20.437 11.2947 20.5859 11.7969 20.5859C12.4703 20.5859 13.1161 20.3184 13.5923 19.8423C14.0684 19.3661 14.3359 18.7203 14.3359 18.0469ZM11.7969 19.4141C11.5265 19.4141 11.2621 19.3339 11.0373 19.1837C10.8125 19.0334 10.6372 18.8199 10.5338 18.5701C10.4303 18.3203 10.4032 18.0454 10.456 17.7802C10.5087 17.5149 10.6389 17.2713 10.8301 17.0801C11.0213 16.8889 11.2649 16.7587 11.5302 16.706C11.7954 16.6532 12.0703 16.6803 12.3201 16.7838C12.5699 16.8872 12.7834 17.0625 12.9337 17.2873C13.0839 17.5121 13.1641 17.7765 13.1641 18.0469C13.1641 18.4095 13.02 18.7572 12.7636 19.0136C12.5072 19.27 12.1595 19.4141 11.7969 19.4141ZM16.4844 15.8984C16.9866 15.8984 17.4775 15.7495 17.895 15.4705C18.3126 15.1915 18.638 14.795 18.8302 14.331C19.0223 13.8671 19.0726 13.3566 18.9747 12.864C18.8767 12.3715 18.6349 11.9191 18.2798 11.564C17.9247 11.2089 17.4723 10.9671 16.9797 10.8691C16.4872 10.7711 15.9767 10.8214 15.5127 11.0136C15.0488 11.2058 14.6522 11.5312 14.3732 11.9487C14.0942 12.3663 13.9453 12.8572 13.9453 13.3594C13.9453 14.0328 14.2128 14.6786 14.689 15.1548C15.1652 15.6309 15.811 15.8984 16.4844 15.8984ZM16.4844 11.9922C16.7548 11.9922 17.0191 12.0724 17.2439 12.2226C17.4688 12.3728 17.644 12.5864 17.7475 12.8362C17.851 13.086 17.878 13.3609 17.8253 13.6261C17.7725 13.8913 17.6423 14.1349 17.4511 14.3261C17.2599 14.5173 17.0163 14.6475 16.7511 14.7003C16.4859 14.753 16.211 14.726 15.9612 14.6225C15.7114 14.519 15.4978 14.3438 15.3476 14.1189C15.1974 13.8941 15.1172 13.6298 15.1172 13.3594C15.1172 12.9968 15.2612 12.649 15.5176 12.3926C15.774 12.1362 16.1218 11.9922 16.4844 11.9922ZM23.5156 15.8984C24.0178 15.8984 24.5087 15.7495 24.9263 15.4705C25.3438 15.1915 25.6692 14.795 25.8614 14.331C26.0536 13.8671 26.1039 13.3566 26.0059 12.864C25.9079 12.3715 25.6661 11.9191 25.311 11.564C24.9559 11.2089 24.5035 10.9671 24.011 10.8691C23.5184 10.7711 23.0079 10.8214 22.544 11.0136C22.08 11.2058 21.6835 11.5312 21.4045 11.9487C21.1255 12.3663 20.9766 12.8572 20.9766 13.3594C20.9766 14.0328 21.2441 14.6786 21.7202 15.1548C22.1964 15.6309 22.8422 15.8984 23.5156 15.8984ZM23.5156 11.9922C23.786 11.9922 24.0504 12.0724 24.2752 12.2226C24.5 12.3728 24.6753 12.5864 24.7787 12.8362C24.8822 13.086 24.9093 13.3609 24.8565 13.6261C24.8038 13.8913 24.6736 14.1349 24.4824 14.3261C24.2912 14.5173 24.0476 14.6475 23.7824 14.7003C23.5171 14.753 23.2422 14.726 22.9924 14.6225C22.7426 14.519 22.5291 14.3438 22.3789 14.1189C22.2286 13.8941 22.1484 13.6298 22.1484 13.3594C22.1484 12.9968 22.2925 12.649 22.5489 12.3926C22.8053 12.1362 23.153 11.9922 23.5156 11.9922ZM25.6787 22.208C25.2596 21.9766 24.8903 21.665 24.5917 21.2908C24.2931 20.9166 24.0711 20.4873 23.9385 20.0273C23.6905 19.1746 23.1726 18.4254 22.4623 17.8922C21.7521 17.3591 20.8881 17.0709 20 17.0709C19.1119 17.0709 18.2479 17.3591 17.5377 17.8922C16.8275 18.4254 16.3095 19.1746 16.0615 20.0273C15.7947 20.9546 15.1705 21.738 14.3262 22.2051C13.5999 22.5981 13.0255 23.2221 12.6939 23.9784C12.3622 24.7347 12.2923 25.5799 12.4952 26.3804C12.698 27.1809 13.1621 27.8908 13.8139 28.3978C14.4657 28.9049 15.268 29.18 16.0938 29.1797C16.5891 29.1803 17.0794 29.0806 17.5352 28.8867C19.1118 28.2369 20.8814 28.2369 22.458 28.8867C22.916 29.0812 23.4087 29.1809 23.9063 29.1797C24.7315 29.1799 25.5332 28.905 26.1847 28.3985C26.8362 27.8921 27.3003 27.1829 27.5036 26.3831C27.707 25.5834 27.6379 24.7386 27.3074 23.9825C26.9769 23.2264 26.4038 22.602 25.6787 22.208ZM23.9063 28.0078C23.5636 28.0084 23.2243 27.9392 22.9092 27.8047C21.0438 27.0345 18.9493 27.0345 17.084 27.8047C16.4837 28.0548 15.8102 28.0651 15.2026 27.8334C14.5949 27.6016 14.0994 27.1455 13.8181 26.5592C13.5368 25.9728 13.4912 25.3008 13.6908 24.6819C13.8903 24.0629 14.3198 23.5441 14.8906 23.2324C16.0073 22.6151 16.8331 21.5796 17.1865 20.3535C17.3635 19.7442 17.7334 19.2088 18.2408 18.8278C18.7482 18.4468 19.3655 18.2408 20 18.2408C20.6345 18.2408 21.2518 18.4468 21.7592 18.8278C22.2666 19.2088 22.6365 19.7442 22.8135 20.3535C22.9889 20.9615 23.2825 21.5289 23.6774 22.0232C24.0724 22.5175 24.561 22.9291 25.1152 23.2344C25.6128 23.5029 26.0065 23.9299 26.2339 24.4476C26.4613 24.9653 26.5094 25.544 26.3706 26.0921C26.2318 26.6403 25.914 27.1264 25.4676 27.4734C25.0211 27.8204 24.4717 28.0085 23.9063 28.0078Z" fill="#003536"/>
</svg>
