<svg width="32" height="32" viewBox="0 0 32 32" fill="none" xmlns="http://www.w3.org/2000/svg">
<path d="M26.0597 32H7.49966C5.60566 32 4.06966 30.464 4.06966 28.568V13.348C0.849659 13.22 -1.07634 9.648 0.64366 6.872L1.64766 5.252C2.02773 4.63814 2.55826 4.1315 3.18896 3.7801C3.81967 3.42869 4.52966 3.24416 5.25166 3.244H8.12166V1.972C8.12166 1.71303 8.17267 1.4566 8.27177 1.21735C8.37087 0.978094 8.51613 0.760702 8.69924 0.577585C8.88236 0.394468 9.09975 0.249212 9.33901 0.15011C9.57826 0.0510075 9.83469 0 10.0937 0C10.7358 0.00026259 11.3716 0.127006 11.9648 0.372994C12.558 0.618983 13.0969 0.979398 13.5508 1.43366C14.0047 1.88793 14.3647 2.42714 14.6102 3.02053C14.8557 3.61391 14.9819 4.24984 14.9817 4.892V11.804C17.5377 12.056 19.4677 13.264 20.8857 14.968C22.4497 16.848 23.3717 19.298 23.9197 21.652C24.4717 24.016 24.6657 26.368 24.7257 28.116C24.7497 28.864 24.7497 29.508 24.7417 30H26.0597C26.828 30.0001 27.5797 29.7756 28.2222 29.3541C28.8647 28.9326 29.37 28.3326 29.6759 27.6278C29.9819 26.923 30.0753 26.1441 29.9444 25.3869C29.8136 24.6297 29.4644 23.9273 28.9397 23.366L27.0997 21.392C25.832 20.0316 25.1415 18.2325 25.1736 16.3733C25.2057 14.5141 25.9578 12.7398 27.2717 11.424L29.0777 9.618C29.1699 9.52249 29.2803 9.44631 29.4023 9.3939C29.5243 9.34149 29.6555 9.3139 29.7883 9.31275C29.921 9.3116 30.0527 9.3369 30.1756 9.38718C30.2985 9.43746 30.4102 9.51171 30.5041 9.60561C30.5979 9.6995 30.6722 9.81115 30.7225 9.93405C30.7728 10.0569 30.7981 10.1886 30.7969 10.3214C30.7958 10.4542 30.7682 10.5854 30.7158 10.7074C30.6634 10.8294 30.5872 10.9398 30.4917 11.032L28.6857 12.838C27.7368 13.7865 27.1935 15.0665 27.1704 16.4079C27.1473 17.7494 27.6461 19.0473 28.5617 20.028L30.4017 22.002C31.1902 22.8489 31.7145 23.9074 31.9103 25.0479C32.1062 26.1884 31.9649 27.3612 31.504 28.4226C31.043 29.4839 30.2824 30.3878 29.3153 31.0232C28.3483 31.6587 27.2168 31.9981 26.0597 32ZM10.1197 2V4.244C10.1197 4.50922 10.0143 4.76357 9.82677 4.95111C9.63923 5.13864 9.38488 5.244 9.11966 5.244H5.25166C4.47566 5.244 3.75566 5.644 3.34766 6.304L2.34166 7.926C2.13111 8.26576 2.01515 8.6556 2.00574 9.0552C1.99634 9.4548 2.09384 9.84966 2.28816 10.1989C2.48248 10.5482 2.76658 10.8393 3.11107 11.042C3.45556 11.2447 3.84795 11.3517 4.24766 11.352H5.06766C5.33288 11.352 5.58723 11.4574 5.77477 11.6449C5.9623 11.8324 6.06766 12.0868 6.06766 12.352V28.568C6.06766 29.358 6.70766 30 7.49966 30H8.93166V28.568C8.93087 27.798 9.08186 27.0353 9.376 26.3236C9.67014 25.612 10.1017 24.9653 10.6459 24.4205C11.1901 23.8757 11.8364 23.4435 12.5477 23.1486C13.2591 22.8538 14.0216 22.702 14.7917 22.702H16.8197C17.0849 22.702 17.3392 22.8074 17.5268 22.9949C17.7143 23.1824 17.8197 23.4368 17.8197 23.702C17.8197 23.9672 17.7143 24.2216 17.5268 24.4091C17.3392 24.5966 17.0849 24.702 16.8197 24.702H14.7937C12.6597 24.702 10.9297 26.432 10.9297 28.568V30H22.7417C22.7517 29.532 22.7517 28.912 22.7277 28.182C22.6717 26.51 22.4877 24.302 21.9737 22.106C21.4597 19.898 20.6337 17.788 19.3497 16.246C18.0957 14.744 16.3937 13.756 13.9817 13.756C13.7164 13.756 13.4621 13.6506 13.2746 13.4631C13.087 13.2756 12.9817 13.0212 12.9817 12.756V4.892C12.9817 3.304 11.7017 2.014 10.1197 2Z" fill="#969696"/>
</svg>
