<svg width="41" height="40" viewBox="0 0 41 40" fill="none" xmlns="http://www.w3.org/2000/svg">
<path d="M36.9702 23.0062L30.4749 8.21875C30.4281 8.11214 30.3619 8.01517 30.2796 7.93281C29.4005 7.05404 28.2085 6.56038 26.9655 6.56038C25.7226 6.56038 24.5305 7.05404 23.6514 7.93281C23.476 8.10808 23.3771 8.34573 23.3764 8.59375V12.8125H17.7514V8.59375C17.7515 8.47041 17.7273 8.34827 17.6801 8.23432C17.6329 8.12037 17.5637 8.01684 17.4764 7.92969C16.5974 7.05092 15.4053 6.55725 14.1624 6.55725C12.9194 6.55725 11.7274 7.05092 10.8483 7.92969C10.766 8.01204 10.6998 8.10901 10.653 8.21562L4.1577 23.0062C3.66484 23.9751 3.39816 25.0432 3.37773 26.13C3.35731 27.2168 3.58366 28.2941 4.03976 29.2808C4.49586 30.2676 5.16982 31.138 6.01093 31.8265C6.85204 32.5151 7.83838 33.004 8.89572 33.2563C9.95305 33.5086 11.0538 33.5178 12.1153 33.2832C13.1767 33.0486 14.171 32.5762 15.0235 31.9018C15.876 31.2273 16.5644 30.3683 17.0369 29.3894C17.5094 28.4104 17.7537 27.337 17.7514 26.25V14.6875H23.3764V26.25C23.3742 27.337 23.6185 28.4104 24.091 29.3894C24.5635 30.3683 25.2519 31.2273 26.1044 31.9018C26.9569 32.5762 27.9512 33.0486 29.0126 33.2832C30.0741 33.5178 31.1748 33.5086 32.2322 33.2563C33.2895 33.004 34.2759 32.5151 35.117 31.8265C35.9581 31.138 36.632 30.2676 37.0881 29.2808C37.5442 28.2941 37.7706 27.2168 37.7502 26.13C37.7297 25.0432 37.4631 23.9751 36.9702 23.0062ZM10.5639 31.5625C9.51324 31.5625 8.48612 31.2509 7.61248 30.6672C6.73885 30.0834 6.05793 29.2537 5.65584 28.283C5.25375 27.3123 5.14854 26.2441 5.35353 25.2136C5.55851 24.1831 6.06448 23.2365 6.80744 22.4935C7.55041 21.7505 8.49701 21.2446 9.52753 21.0396C10.5581 20.8346 11.6262 20.9398 12.597 21.3419C13.5677 21.744 14.3974 22.4249 14.9811 23.2985C15.5649 24.1722 15.8764 25.1993 15.8764 26.25C15.8764 27.659 15.3167 29.0102 14.3205 30.0065C13.3242 31.0028 11.9729 31.5625 10.5639 31.5625ZM10.5639 19.0625C9.56566 19.0623 8.57836 19.2709 7.66551 19.675L12.2921 9.14687C12.781 8.71142 13.4066 8.4602 14.0609 8.43652C14.7152 8.41285 15.3573 8.6182 15.8764 9.01719V21.4062C15.2033 20.6668 14.3829 20.0763 13.468 19.6727C12.5531 19.2691 11.5639 19.0612 10.5639 19.0625ZM25.2514 9.01875C25.7706 8.61977 26.4127 8.41441 27.067 8.43808C27.7213 8.46176 28.3469 8.71298 28.8358 9.14844L33.4624 19.675C32.0853 19.0648 30.5511 18.9037 29.0773 19.2144C27.6035 19.5251 26.2649 20.292 25.2514 21.4062V9.01875ZM30.5639 31.5625C29.5132 31.5625 28.4861 31.2509 27.6125 30.6672C26.7388 30.0834 26.0579 29.2537 25.6558 28.283C25.2537 27.3123 25.1485 26.2441 25.3535 25.2136C25.5585 24.1831 26.0645 23.2365 26.8074 22.4935C27.5504 21.7505 28.497 21.2446 29.5275 21.0396C30.5581 20.8346 31.6262 20.9398 32.597 21.3419C33.5677 21.744 34.3974 22.4249 34.9811 23.2985C35.5649 24.1722 35.8764 25.1993 35.8764 26.25C35.8764 27.659 35.3167 29.0102 34.3205 30.0065C33.3242 31.0028 31.9729 31.5625 30.5639 31.5625Z" fill="#003536"/>
</svg>
