<svg width="23" height="29" viewBox="0 0 23 29" fill="none" xmlns="http://www.w3.org/2000/svg">
<path fill-rule="evenodd" clip-rule="evenodd" d="M12.5149 1.45833C12.5149 1.07156 12.3613 0.700626 12.0878 0.427136C11.8143 0.153645 11.4433 0 11.0566 0C10.6698 0 10.2989 0.153645 10.0254 0.427136C9.75188 0.700626 9.59823 1.07156 9.59823 1.45833V2.55208H8.78594C7.22265 2.55198 5.71809 3.14766 4.57854 4.21785C3.43899 5.28803 2.75013 6.75228 2.65219 8.3125L2.3299 13.4663C2.20531 15.4309 1.54567 17.3241 0.422401 18.9408C0.189991 19.2749 0.047984 19.6634 0.0101916 20.0686C-0.0276007 20.4738 0.0401074 20.8818 0.206731 21.2531C0.373355 21.6244 0.633223 21.9462 0.961062 22.1873C1.2889 22.4284 1.67355 22.5805 2.07761 22.629L7.04615 23.224V24.7917C7.04615 25.8553 7.46868 26.8754 8.22077 27.6275C8.97287 28.3796 9.99294 28.8021 11.0566 28.8021C12.1202 28.8021 13.1403 28.3796 13.8924 27.6275C14.6445 26.8754 15.067 25.8553 15.067 24.7917V23.224L20.0355 22.6275C20.4393 22.579 20.8237 22.4268 21.1514 22.1858C21.479 21.9448 21.7387 21.6231 21.9053 21.2521C22.0719 20.881 22.1397 20.4732 22.1021 20.0682C22.0645 19.6632 21.9228 19.2749 21.6907 18.9408C20.5675 17.3241 19.9078 15.4309 19.7832 13.4663L19.4609 8.31396C19.3634 6.75348 18.6747 5.28887 17.5351 4.21838C16.3955 3.14788 14.8907 2.552 13.3272 2.55208H12.5149V1.45833ZM8.78594 4.73958C7.77907 4.73946 6.81 5.12308 6.07604 5.81235C5.34207 6.50161 4.89839 7.44469 4.83532 8.44958L4.51448 13.6033C4.36454 15.9669 3.57074 18.2444 2.21907 20.1892C2.20225 20.2133 2.19197 20.2414 2.18922 20.2707C2.18648 20.3 2.19136 20.3296 2.2034 20.3564C2.21543 20.3833 2.23421 20.4066 2.25791 20.424C2.28161 20.4415 2.30943 20.4525 2.33865 20.456L7.78844 21.1108C9.9599 21.3704 12.1532 21.3704 14.3247 21.1108L19.7745 20.456C19.8037 20.4525 19.8315 20.4415 19.8552 20.424C19.8789 20.4066 19.8977 20.3833 19.9097 20.3564C19.9218 20.3296 19.9267 20.3 19.9239 20.2707C19.9212 20.2414 19.9109 20.2133 19.8941 20.1892C18.5429 18.2443 17.7496 15.9668 17.6001 13.6033L17.2778 8.44958C17.2148 7.44469 16.7711 6.50161 16.0371 5.81235C15.3031 5.12308 14.3341 4.73946 13.3272 4.73958H8.78594ZM11.0566 26.6146C10.0503 26.6146 9.23365 25.7979 9.23365 24.7917V23.6979H12.8795V24.7917C12.8795 25.7979 12.0628 26.6146 11.0566 26.6146Z" fill="white"/>
</svg>
