<svg width="25" height="25" viewBox="0 0 25 25" fill="none" xmlns="http://www.w3.org/2000/svg">
<path d="M4.16699 18.7497C4.16699 17.6446 4.60598 16.5848 5.38738 15.8034C6.16878 15.022 7.22859 14.583 8.33366 14.583H16.667C17.7721 14.583 18.8319 15.022 19.6133 15.8034C20.3947 16.5848 20.8337 17.6446 20.8337 18.7497C20.8337 19.3022 20.6142 19.8321 20.2235 20.2228C19.8328 20.6135 19.3029 20.833 18.7503 20.833H6.25033C5.69779 20.833 5.16789 20.6135 4.77719 20.2228C4.38649 19.8321 4.16699 19.3022 4.16699 18.7497Z" stroke="#003536" stroke-width="1.5625" stroke-linejoin="round"/>
<path d="M12.5 10.4165C14.2259 10.4165 15.625 9.01739 15.625 7.2915C15.625 5.56561 14.2259 4.1665 12.5 4.1665C10.7741 4.1665 9.375 5.56561 9.375 7.2915C9.375 9.01739 10.7741 10.4165 12.5 10.4165Z" stroke="#003536" stroke-width="1.5625"/>
</svg>
