<svg width="20" height="20" viewBox="0 0 20 20" fill="none" xmlns="http://www.w3.org/2000/svg">
<path d="M3.33301 15.0003C3.33301 14.1163 3.6842 13.2684 4.30932 12.6433C4.93444 12.0182 5.78229 11.667 6.66634 11.667H13.333C14.2171 11.667 15.0649 12.0182 15.69 12.6433C16.3152 13.2684 16.6663 14.1163 16.6663 15.0003C16.6663 15.4424 16.4907 15.8663 16.1782 16.1788C15.8656 16.4914 15.4417 16.667 14.9997 16.667H4.99967C4.55765 16.667 4.13372 16.4914 3.82116 16.1788C3.5086 15.8663 3.33301 15.4424 3.33301 15.0003Z" stroke="#969696" stroke-width="1.25" stroke-linejoin="round"/>
<path d="M10 8.3335C11.3807 8.3335 12.5 7.21421 12.5 5.8335C12.5 4.45278 11.3807 3.3335 10 3.3335C8.61929 3.3335 7.5 4.45278 7.5 5.8335C7.5 7.21421 8.61929 8.3335 10 8.3335Z" stroke="#969696" stroke-width="1.25"/>
</svg>
