<svg width="32" height="24" viewBox="0 0 32 24" fill="none" xmlns="http://www.w3.org/2000/svg">
<path d="M14.9763 23.0199H10.7303C9.87061 23.0196 9.03131 22.7579 8.32371 22.2697C7.61612 21.7814 7.07368 21.0895 6.76832 20.2859C5.00232 20.4259 3.18832 19.8179 1.83632 18.4619C0.661413 17.2813 0.00183678 15.6835 0.00183678 14.0179C0.00183678 12.3523 0.661413 10.7545 1.83632 9.57389L10.2763 1.1479C10.5574 0.865917 10.8914 0.642189 11.2592 0.489534C11.6269 0.33688 12.0212 0.258301 12.4193 0.258301C12.8175 0.258301 13.2117 0.33688 13.5795 0.489534C13.9472 0.642189 14.2812 0.865917 14.5623 1.1479C15.1308 1.71779 15.4501 2.48991 15.4501 3.2949C15.4501 4.09988 15.1308 4.872 14.5623 5.4419L11.8783 8.1019C12.1099 8.41235 12.3152 8.74148 12.4923 9.0859C12.8484 9.03168 13.2081 9.00427 13.5683 9.00389H20.9203C21.5803 9.00656 22.213 9.0919 22.8183 9.2599C23.2695 8.57155 23.8837 8.00524 24.6063 7.61121C25.3289 7.21718 26.1376 7.00762 26.9606 7.00114C27.7836 6.99465 28.5955 7.19143 29.3242 7.57402C30.0529 7.95661 30.676 8.51318 31.138 9.19432C31.6 9.87547 31.8867 10.6601 31.9726 11.4787C32.0586 12.2972 31.9412 13.1243 31.6308 13.8866C31.3204 14.6489 30.8267 15.3227 30.1933 15.8484C29.56 16.3741 28.8067 16.7352 28.0003 16.8999V18.7679C28.0003 21.1159 26.1043 23.0219 23.7563 23.0219L14.9763 23.0199ZM11.6903 2.5599L3.25032 10.9839C2.4494 11.7899 2.00004 12.8801 2.00041 14.0163C2.00079 15.1526 2.45087 16.2425 3.25232 17.0479C3.76901 17.5675 4.41102 17.9451 5.11628 18.1441C5.82154 18.3431 6.56621 18.3568 7.27832 18.1839L8.37632 17.9179L8.50632 19.0379C8.63832 20.1559 9.58632 21.0179 10.7303 21.0179H13.9823V20.8179C13.9823 18.5639 16.0223 16.9979 18.2263 16.9979H21.0003C21.2655 16.9979 21.5199 17.1033 21.7074 17.2908C21.895 17.4783 22.0003 17.7327 22.0003 17.9979C22.0003 18.2631 21.895 18.5175 21.7074 18.705C21.5199 18.8925 21.2655 18.9979 21.0003 18.9979H18.2263C16.8463 18.9979 15.9823 19.9259 15.9823 20.8179V21.0179H23.7563C24.0515 21.0174 24.3437 20.9587 24.6163 20.8452C24.8888 20.7318 25.1363 20.5658 25.3447 20.3566C25.5531 20.1475 25.7182 19.8994 25.8307 19.6265C25.9432 19.3535 26.0008 19.0611 26.0003 18.7659V16.1059C26.003 14.7558 25.4693 13.4598 24.5167 12.5031C23.5641 11.5463 22.2705 11.0071 20.9203 11.0039H13.5683C13.0897 11.0052 12.6323 11.0679 12.1963 11.1919L11.3503 11.4299L11.0063 10.6219C10.7843 10.1019 10.4763 9.4879 10.0623 9.04589L9.05632 8.0819L13.1463 4.0299C13.3411 3.83489 13.4505 3.57053 13.4505 3.2949C13.4505 3.01926 13.3411 2.7549 13.1463 2.5599C13.051 2.46387 12.9375 2.38766 12.8126 2.33565C12.6877 2.28364 12.5537 2.25687 12.4183 2.25687C12.283 2.25687 12.149 2.28364 12.024 2.33565C11.8991 2.38766 11.7857 2.46387 11.6903 2.5599ZM24.6863 10.0899C25.5241 10.618 26.2421 11.3156 26.7943 12.1378C27.3464 12.96 27.7204 13.8886 27.8923 14.8639C28.3383 14.7249 28.7457 14.4837 29.082 14.1595C29.4183 13.8353 29.6743 13.437 29.8295 12.9964C29.9847 12.5558 30.0348 12.0851 29.976 11.6217C29.9171 11.1583 29.7508 10.715 29.4904 10.3272C29.23 9.93938 28.8826 9.61775 28.4759 9.38792C28.0692 9.15809 27.6145 9.02641 27.1479 9.00336C26.6813 8.98032 26.2158 9.06654 25.7885 9.25518C25.3611 9.44381 24.9837 9.72964 24.6863 10.0899Z" fill="#969696"/>
</svg>
