<svg width="24" height="23" viewBox="0 0 24 23" fill="none" xmlns="http://www.w3.org/2000/svg">
<path d="M12.0002 9.41667V15.6667M8.87524 12.5417H15.1252M1.9492 12.7646C1.58149 10.3708 1.39711 9.175 1.85024 8.11354C2.30232 7.05313 3.30649 6.32709 5.31378 4.87604L6.81378 3.79167C9.31065 1.98646 10.5596 1.08334 12.0002 1.08334C13.4409 1.08334 14.6898 1.98646 17.1867 3.79167L18.6867 4.87604C20.694 6.32709 21.6971 7.05313 22.1502 8.11354C22.6023 9.175 22.419 10.3708 22.0513 12.7635L21.7377 14.8052C21.2169 18.1969 20.9554 19.8927 19.7388 20.9052C18.5221 21.9177 16.744 21.9167 13.1867 21.9167H10.8127C7.25545 21.9167 5.47732 21.9167 4.26065 20.9052C3.04399 19.8927 2.78357 18.1969 2.2617 14.8042L1.9492 12.7646Z" stroke="#003536" stroke-width="1.25" stroke-linecap="round" stroke-linejoin="round"/>
</svg>
