<svg width="11" height="15" viewBox="0 0 11 15" fill="none" xmlns="http://www.w3.org/2000/svg">
<path d="M3.375 4.125V5.25H2.25V6H3.375V7.125H4.125V6H5.25V5.25H4.125V4.125H3.375ZM2.625 8.25C2.52554 8.25 2.43016 8.28951 2.35983 8.35983C2.28951 8.43016 2.25 8.52554 2.25 8.625C2.25 8.72446 2.28951 8.81984 2.35983 8.89017C2.43016 8.96049 2.52554 9 2.625 9H7.875C7.97446 9 8.06984 8.96049 8.14017 8.89017C8.21049 8.81984 8.25 8.72446 8.25 8.625C8.25 8.52554 8.21049 8.43016 8.14017 8.35983C8.06984 8.28951 7.97446 8.25 7.875 8.25H2.625ZM2.25 10.5C2.25 10.4005 2.28951 10.3052 2.35983 10.2348C2.43016 10.1645 2.52554 10.125 2.625 10.125H7.875C7.97446 10.125 8.06984 10.1645 8.14017 10.2348C8.21049 10.3052 8.25 10.4005 8.25 10.5C8.25 10.5995 8.21049 10.6948 8.14017 10.7652C8.06984 10.8355 7.97446 10.875 7.875 10.875H2.625C2.52554 10.875 2.43016 10.8355 2.35983 10.7652C2.28951 10.6948 2.25 10.5995 2.25 10.5ZM2.625 12C2.52554 12 2.43016 12.0395 2.35983 12.1098C2.28951 12.1802 2.25 12.2755 2.25 12.375C2.25 12.4745 2.28951 12.5698 2.35983 12.6402C2.43016 12.7105 2.52554 12.75 2.625 12.75H7.875C7.97446 12.75 8.06984 12.7105 8.14017 12.6402C8.21049 12.5698 8.25 12.4745 8.25 12.375C8.25 12.2755 8.21049 12.1802 8.14017 12.1098C8.06984 12.0395 7.97446 12 7.875 12H2.625Z" fill="#969696"/>
<path fill-rule="evenodd" clip-rule="evenodd" d="M2.625 1.125C2.625 0.826631 2.74353 0.540483 2.9545 0.329505C3.16548 0.118526 3.45163 0 3.75 0H6.75C7.04837 0 7.33452 0.118526 7.54549 0.329505C7.75647 0.540483 7.875 0.826631 7.875 1.125H9.375C9.67337 1.125 9.95952 1.24353 10.1705 1.4545C10.3815 1.66548 10.5 1.95163 10.5 2.25V13.875C10.5 14.1734 10.3815 14.4595 10.1705 14.6705C9.95952 14.8815 9.67337 15 9.375 15H1.125C0.826631 15 0.540483 14.8815 0.329505 14.6705C0.118526 14.4595 0 14.1734 0 13.875V2.25C0 1.95163 0.118526 1.66548 0.329505 1.4545C0.540483 1.24353 0.826631 1.125 1.125 1.125H2.625ZM6.75 3C7.04837 3 7.33452 2.88147 7.54549 2.6705C7.75647 2.45952 7.875 2.17337 7.875 1.875H9.375C9.47446 1.875 9.56984 1.91451 9.64016 1.98483C9.71049 2.05516 9.75 2.15054 9.75 2.25V13.875C9.75 13.9745 9.71049 14.0698 9.64016 14.1402C9.56984 14.2105 9.47446 14.25 9.375 14.25H1.125C1.02554 14.25 0.930161 14.2105 0.859835 14.1402C0.789509 14.0698 0.75 13.9745 0.75 13.875V2.25C0.75 2.15054 0.789509 2.05516 0.859835 1.98483C0.930161 1.91451 1.02554 1.875 1.125 1.875H2.625C2.625 2.17337 2.74353 2.45952 2.9545 2.6705C3.16548 2.88147 3.45163 3 3.75 3H6.75ZM3.75 0.75C3.65054 0.75 3.55516 0.789509 3.48483 0.859835C3.41451 0.930161 3.375 1.02554 3.375 1.125V1.875C3.375 1.97446 3.41451 2.06984 3.48483 2.14016C3.55516 2.21049 3.65054 2.25 3.75 2.25H6.75C6.84946 2.25 6.94484 2.21049 7.01516 2.14016C7.08549 2.06984 7.125 1.97446 7.125 1.875V1.125C7.125 1.02554 7.08549 0.930161 7.01516 0.859835C6.94484 0.789509 6.84946 0.75 6.75 0.75H3.75Z" fill="#969696"/>
</svg>
