<svg width="80" height="80" viewBox="0 0 80 80" fill="none" xmlns="http://www.w3.org/2000/svg">
<rect width="80" height="80" rx="15" fill="#003536"/>
<path d="M40.0952 64C36.0064 64 32.246 63.0727 28.8143 61.2182C25.3825 59.3636 22.5714 56.8909 20.381 53.8V59.6364H16V46.5455H29.1429V50.9091H23.7214C25.4738 53.5273 27.7829 55.6364 30.6488 57.2364C33.5147 58.8364 36.6635 59.6364 40.0952 59.6364C42.8333 59.6364 45.398 59.1182 47.7893 58.0818C50.1806 57.0455 52.2615 55.6455 54.0321 53.8818C55.8028 52.1182 57.2083 50.0455 58.2488 47.6636C59.2893 45.2818 59.8095 42.7273 59.8095 40H64.1905C64.1905 43.3091 63.5607 46.4182 62.3012 49.3273C61.0417 52.2364 59.3167 54.7818 57.1262 56.9636C54.9357 59.1455 52.3802 60.8636 49.4595 62.1182C46.5389 63.3727 43.4175 64 40.0952 64ZM16 40C16 36.6909 16.6298 33.5818 17.8893 30.6727C19.1488 27.7636 20.8738 25.2182 23.0643 23.0364C25.2548 20.8545 27.8103 19.1364 30.731 17.8818C33.6516 16.6273 36.773 16 40.0952 16C44.1841 16 47.9444 16.9273 51.3762 18.7818C54.8079 20.6364 57.619 23.1091 59.8095 26.2V20.3636H64.1905V33.4545H51.0476V29.0909H56.4691C54.7167 26.4727 52.4075 24.3636 49.5417 22.7636C46.6758 21.1636 43.527 20.3636 40.0952 20.3636C37.3571 20.3636 34.7925 20.8818 32.4012 21.9182C30.0099 22.9545 27.929 24.3545 26.1583 26.1182C24.3877 27.8818 22.9821 29.9545 21.9417 32.3364C20.9012 34.7182 20.381 37.2727 20.381 40H16ZM40.0952 53.0909C40.8619 53.0909 41.5099 52.8273 42.0393 52.3C42.5687 51.7727 42.8333 51.1273 42.8333 50.3636C42.8333 49.6 42.5687 48.9455 42.0393 48.4C41.5099 47.8545 40.8619 47.5818 40.0952 47.5818C39.3286 47.5818 38.6806 47.8455 38.1512 48.3727C37.6218 48.9 37.3571 49.5455 37.3571 50.3091C37.3571 51.0727 37.6218 51.7273 38.1512 52.2727C38.6806 52.8182 39.3286 53.0909 40.0952 53.0909ZM38.1238 44.8H42.1214C42.1214 43.4909 42.2766 42.5091 42.5869 41.8545C42.8972 41.2 43.527 40.4 44.4762 39.4545C45.754 38.1818 46.6028 37.1545 47.0226 36.3727C47.4425 35.5909 47.6524 34.6545 47.6524 33.5636C47.6524 31.5273 46.9222 29.9091 45.4619 28.7091C44.0016 27.5091 42.2127 26.9091 40.0952 26.9091C38.2698 26.9091 36.7 27.3818 35.3857 28.3273C34.0714 29.2727 33.1222 30.6182 32.5381 32.3636L36.1524 33.8909C36.4079 32.9455 36.8917 32.1636 37.6036 31.5455C38.3155 30.9273 39.146 30.6182 40.0952 30.6182C41.081 30.6182 41.9115 30.9 42.5869 31.4636C43.2623 32.0273 43.6 32.7818 43.6 33.7273C43.6 34.3455 43.454 34.9636 43.1619 35.5818C42.8698 36.2 42.2492 36.9273 41.3 37.7636C40.0952 38.8182 39.2647 39.8455 38.8083 40.8455C38.352 41.8455 38.1238 43.1636 38.1238 44.8Z" fill="white"/>
</svg>
