<svg width="70" height="70" viewBox="0 0 70 70" fill="none" xmlns="http://www.w3.org/2000/svg">
<rect width="70" height="70" rx="15" fill="#D9D9D9"/>
<path d="M35.0833 56C31.5056 56 28.2153 55.1886 25.2125 53.5659C22.2097 51.9432 19.75 49.7795 17.8333 47.075V52.1818H14V40.7273H25.5V44.5455H20.7563C22.2896 46.8364 24.3101 48.6818 26.8177 50.0818C29.3253 51.4818 32.0806 52.1818 35.0833 52.1818C37.4792 52.1818 39.7233 51.7284 41.8156 50.8216C43.908 49.9148 45.7288 48.6898 47.2781 47.1466C48.8274 45.6034 50.0573 43.7898 50.9677 41.7057C51.8781 39.6216 52.3333 37.3864 52.3333 35H56.1667C56.1667 37.8955 55.6156 40.6159 54.5135 43.1614C53.4115 45.7068 51.9021 47.9341 49.9854 49.8432C48.0688 51.7523 45.8326 53.2557 43.2771 54.3534C40.7215 55.4511 37.9903 56 35.0833 56ZM14 35C14 32.1045 14.551 29.3841 15.6531 26.8386C16.7552 24.2932 18.2646 22.0659 20.1813 20.1568C22.0979 18.2477 24.334 16.7443 26.8896 15.6466C29.4451 14.5489 32.1764 14 35.0833 14C38.6611 14 41.9514 14.8114 44.9542 16.4341C47.9569 18.0568 50.4167 20.2205 52.3333 22.925V17.8182H56.1667V29.2727H44.6667V25.4545H49.4104C47.8771 23.1636 45.8566 21.3182 43.349 19.9182C40.8413 18.5182 38.0861 17.8182 35.0833 17.8182C32.6875 17.8182 30.4434 18.2716 28.351 19.1784C26.2587 20.0852 24.4378 21.3102 22.8885 22.8534C21.3392 24.3966 20.1094 26.2102 19.199 28.2943C18.2885 30.3784 17.8333 32.6136 17.8333 35H14ZM35.0833 46.4545C35.7542 46.4545 36.3212 46.2239 36.7844 45.7625C37.2476 45.3011 37.4792 44.7364 37.4792 44.0682C37.4792 43.4 37.2476 42.8273 36.7844 42.35C36.3212 41.8727 35.7542 41.6341 35.0833 41.6341C34.4125 41.6341 33.8455 41.8648 33.3823 42.3261C32.9191 42.7875 32.6875 43.3523 32.6875 44.0205C32.6875 44.6886 32.9191 45.2614 33.3823 45.7386C33.8455 46.2159 34.4125 46.4545 35.0833 46.4545ZM33.3583 39.2H36.8563C36.8563 38.0545 36.992 37.1955 37.2635 36.6227C37.5351 36.05 38.0861 35.35 38.9167 34.5227C40.0347 33.4091 40.7774 32.5102 41.1448 31.8261C41.5122 31.142 41.6958 30.3227 41.6958 29.3682C41.6958 27.5864 41.0569 26.1705 39.7792 25.1205C38.5014 24.0705 36.9361 23.5455 35.0833 23.5455C33.4861 23.5455 32.1125 23.9591 30.9625 24.7864C29.8125 25.6136 28.9819 26.7909 28.4708 28.3182L31.6333 29.6545C31.8569 28.8273 32.2802 28.1432 32.9031 27.6023C33.526 27.0614 34.2528 26.7909 35.0833 26.7909C35.9458 26.7909 36.6726 27.0375 37.2635 27.5307C37.8545 28.0239 38.15 28.6841 38.15 29.5114C38.15 30.0523 38.0222 30.5932 37.7667 31.1341C37.5111 31.675 36.9681 32.3114 36.1375 33.0432C35.0833 33.9659 34.3566 34.8648 33.9573 35.7398C33.558 36.6148 33.3583 37.7682 33.3583 39.2Z" fill="#003536"/>
</svg>
