<svg width="40" height="40" viewBox="0 0 40 40" fill="none" xmlns="http://www.w3.org/2000/svg">
<path d="M27.15 20C27.15 20.2667 27.108 20.5167 27.024 20.75C26.9413 20.9833 26.8 21.2 26.6 21.4L21.4 26.6C21.0333 26.9667 20.5667 27.15 20 27.15C19.4333 27.15 18.9667 26.9667 18.6 26.6C18.2333 26.2333 18.05 25.7667 18.05 25.2C18.05 24.6333 18.2333 24.1667 18.6 23.8L20.4 22H14C13.4333 22 12.958 21.8087 12.574 21.426C12.1913 21.042 12 20.5667 12 20C12 19.4333 12.1913 18.9587 12.574 18.576C12.958 18.192 13.4333 18 14 18H20.4L18.6 16.2C18.2333 15.8333 18.05 15.3667 18.05 14.8C18.05 14.2333 18.2333 13.7667 18.6 13.4C18.9667 13.0333 19.4333 12.85 20 12.85C20.5667 12.85 21.0333 13.0333 21.4 13.4L26.6 18.6C26.8 18.8 26.9413 19.0167 27.024 19.25C27.108 19.4833 27.15 19.7333 27.15 20ZM40 20C40 17.2333 39.4747 14.6333 38.424 12.2C37.3747 9.76667 35.95 7.65 34.15 5.85C32.35 4.05 30.2333 2.62533 27.8 1.576C25.3667 0.525334 22.7667 0 20 0C17.2333 0 14.6333 0.525334 12.2 1.576C9.76667 2.62533 7.65 4.05 5.85 5.85C4.05 7.65 2.62467 9.76667 1.574 12.2C0.524667 14.6333 0 17.2333 0 20C0 22.7667 0.524667 25.3667 1.574 27.8C2.62467 30.2333 4.05 32.35 5.85 34.15C7.65 35.95 9.76667 37.3747 12.2 38.424C14.6333 39.4747 17.2333 40 20 40C22.7667 40 25.3667 39.4747 27.8 38.424C30.2333 37.3747 32.35 35.95 34.15 34.15C35.95 32.35 37.3747 30.2333 38.424 27.8C39.4747 25.3667 40 22.7667 40 20Z" fill="white"/>
</svg>
